<?xml version="1.0" encoding="utf-8"?>
<!-- Generator: Adobe Illustrator 21.1.0, SVG Export Plug-In . SVG Version: 6.00 Build 0)  -->
<svg version="1.1" id="Layer_1" xmlns="http://www.w3.org/2000/svg" xmlns:xlink="http://www.w3.org/1999/xlink" x="0px" y="0px"
	 viewBox="0 0 864 864" style="enable-background:new 0 0 864 864;" xml:space="preserve">
<style type="text/css">
	.st0{fill:none;stroke:#000000;stroke-width:2;stroke-linecap:round;stroke-linejoin:round;stroke-miterlimit:10;}
</style>
<g>
	<path class="st0" d="M156.3,365.1c-0.1,3.6-0.3,7.2,0.1,10.8c0.4,2.9,2.8,5.5,6,5.8c2.7,0.3,5.4-0.1,7.3-2.4c1.2-1.4,1.7-3,1.7-4.8
		c0-3.2,0-6.3,0-9.5"/>
	<path class="st0" d="M315.3,483.2c0.2-1.6-0.7-3.1-3-3.2c-1.5-0.1-2.9,0-4.4,0c-2,0.1-3.2,1.5-2.9,3.3c0.2,1.4,1.3,1.9,2.4,2.3
		c1.5,0.6,3.2,0.5,4.7,0.9c1.3,0.3,2.6,0.4,3.3,1.8c0.9,1.8-0.5,3.8-2.3,3.9c-1.9,0-3.9,0-5.8,0c-1.5,0-2.3-0.8-2.6-2.7"/>
	<path class="st0" d="M496.3,483.2c0-1.9-0.9-3-2.9-3.2c-1.5-0.1-3.1-0.1-4.6,0c-2.4,0.1-3.7,2.4-2.6,4.2c0.7,1,1.8,1.3,2.9,1.6
		c1.8,0.4,3.6,0.4,5.4,1c1,0.3,1.8,0.9,2,2c0.2,1.1-0.1,2.2-1.1,2.9c-0.4,0.3-0.9,0.5-1.5,0.5c-1.9,0-3.7,0-5.6,0
		c-1.7,0-2.7-1-2.7-2.7"/>
	<path class="st0" d="M307.8,445.9c-0.3-1.7-1.2-2.6-2.9-2.6c-1.5,0-3.1,0-4.6,0c-1.4,0-2.5,0.7-2.8,1.9c-0.4,1.4,0,2.4,1.5,3.2
		c1.4,0.8,3,0.9,4.5,1.1c1.1,0.1,2.3,0.3,3.3,0.9c1.1,0.6,1.6,1.8,1.3,3c-0.2,1-1.3,2-2.4,2.1c-2,0.1-4,0.1-6,0
		c-1.6-0.1-2.4-1.2-2.4-3.1"/>
	<path class="st0" d="M632.6,409.2c-0.3-2-1.2-2.7-3.3-2.7c-1.5,0-2.9,0-4.4,0c-1.3,0-2.5,0.8-2.8,1.8c-0.4,1.4,0.2,2.6,1.6,3.3
		c1.7,0.9,3.6,0.9,5.5,1.2c1,0.2,1.9,0.4,2.7,1c1,0.8,1.2,1.8,0.9,2.9c-0.3,1.1-1.4,1.8-2.6,1.8c-1.8,0-3.6,0-5.4,0
		c-2,0-2.9-1-2.8-3"/>
	<path class="st0" d="M418.8,483.2c0.3-1.4-0.4-2.9-2.8-3.1c-1.6-0.1-3.2-0.1-4.7,0c-2,0.1-3.1,1.6-2.8,3.4c0.2,1.3,1.3,1.8,2.4,2.2
		c1.5,0.5,3.2,0.5,4.7,0.9c1.3,0.3,2.6,0.4,3.3,1.8c0.9,1.8-0.5,3.8-2.3,3.9c-1.9,0-3.9,0-5.8,0c-1.3,0-2.3-1-2.6-2.7"/>
	<path class="st0" d="M580.9,372.4c0.1-1.5-1-2.7-2.6-2.8c-1.7-0.1-3.4-0.1-5.1,0c-1.2,0-2.5,1.1-2.7,2.2c-0.3,1.2,0.3,2.4,1.6,3
		c1.4,0.6,2.9,0.8,4.4,1c1.2,0.2,2.4,0.3,3.4,1c1.2,0.8,1.5,1.4,1.2,2.9c-0.2,1.1-1.1,2-2.3,2.1c-1.9,0.1-3.9,0.1-5.8,0
		c-1.6-0.1-2.5-1.2-2.6-2.8"/>
	<path class="st0" d="M555.5,409.1c-0.3-1.8-1.1-2.6-2.9-2.6c-1.7,0-3.3,0-5,0c-1,0-2.1,0.8-2.4,1.7c-0.4,0.9,0,2.3,0.7,2.9
		c1.1,0.9,2.4,1.2,3.8,1.3c1.3,0.2,2.5,0.3,3.8,0.6c1.6,0.4,2.6,1.6,2.4,3c-0.2,1.5-1.3,2.4-3,2.4c-1.7,0-3.4,0-5.1,0
		c-1.7,0-2.8-1.1-2.8-2.8"/>
	<path class="st0" d="M166.9,409.2c-0.1-1.8-1-2.7-2.8-2.7c-1.6,0-3.2,0-4.9,0c-1.3,0-2.3,0.7-2.7,1.9c-0.4,1.2,0.1,2.3,1.2,3
		c1,0.6,2.1,0.8,3.3,1c1.3,0.2,2.6,0.2,3.8,0.6c2.2,0.8,3,2.2,2.1,3.9c-0.6,1.1-1.3,1.6-2.6,1.6c-1.5-0.1-3.1-0.1-4.6,0
		c-1.8,0.1-3.1-0.5-3.5-2.3"/>
	<path class="st0" d="M343,446c-0.1-1.7-1.1-2.7-2.7-2.7c-1.6,0-3.2,0-4.9,0c-1.4,0-2.6,1-2.9,2.3c-0.2,1.1,0.5,2.1,1.7,2.8
		c1.4,0.8,3,0.8,4.5,1.1c1.3,0.2,2.6,0.3,3.7,1.2c0.9,0.8,1.2,1.9,0.8,2.9c-0.4,1.2-1.4,1.8-2.6,1.8c-1.9,0.1-3.7,0.1-5.6,0
		c-1.7-0.1-2.5-1-2.7-3.2"/>
	<path class="st0" d="M481.4,483.2c-0.4-2.5-1.2-3.2-3.8-3.2c-1.3,0-2.5,0-3.8,0c-2,0.1-3,1.3-2.9,3.2c0.1,1.4,1,1.9,2.1,2.3
		c1.2,0.5,2.4,0.6,3.6,0.8c1.5,0.2,3.1,0.2,4.3,1.4c0.8,0.8,0.9,1.9,0.6,2.8c-0.4,1-1.2,1.7-2.4,1.7c-1.9,0-3.8,0-5.7,0
		c-1.6,0-2.5-1-2.6-2.7"/>
	<path class="st0" d="M334.4,409.2c0.2-1.5-1.3-2.8-2.8-2.7c-1.7,0.1-3.4,0-5.1,0c-1.8,0-3.1,2.2-2.3,3.8c0.5,1,1.5,1.5,2.5,1.8
		c1.8,0.5,3.7,0.4,5.5,1c1.9,0.6,2.9,1.7,2.4,3.4c-0.3,1.1-1.3,2-2.4,2.1c-1.9,0-3.9,0.1-5.8,0c-1.7,0-2.4-0.8-2.6-3"/>
	<path class="st0" d="M278.7,371.8c-0.2-0.1-0.4-0.1-0.5-0.2c-2-2.4-4.7-2.1-7.3-1.8c-2.2,0.3-3.8,2.5-3.8,4.5c0,0.8,0.1,1.6,0,2.3
		c-0.4,2.7,2.3,5.5,5.3,5.3c1.5-0.1,3,0.1,4.4-0.8c1.3-0.9,2-2.1,2.3-3.6c0.1-0.3,0-0.6,0-1c0-3.9,0-7.7,0-11.6"/>
	<path class="st0" d="M528.3,482.4c-1.1-0.8-1.9-1.8-3.3-2.2c-2.9-0.9-6.3,0.2-7.8,2.4c-0.7,1-0.5,2.1-0.6,3.2
		c-0.3,3.3,0.5,4.9,3.1,6.2c2.8,1.4,7.1,0,8.4-2.5c0.4-0.8,0.5-1.7,0.5-2.6c0-1.5-0.3-3-0.2-4.4c0.2-2,0.1-4.1,0.1-6.1
		c0-0.2,0.1-0.5-0.1-0.7"/>
	<path class="st0" d="M549.8,445.6c-0.5-0.3-0.9-0.8-1.3-1.2c-1.8-1.7-8.1-1.9-9.5,1.2c-0.1,0.3-0.4,0.7-0.4,1
		c-0.3,2.1-0.6,4.2,0.3,6.2c0.6,1.4,1.6,2.2,3,2.4c2.2,0.4,4.3,0.7,6.3-0.7c1.4-1,2-2.2,2-3.8c0-1.6-0.2-3.3-0.1-4.9
		c0.1-2.3-0.1-4.6,0.2-6.9"/>
	<path class="st0" d="M285.5,445.6c-0.5-0.3-0.9-0.8-1.3-1.2c-1.8-1.7-8.1-1.9-9.5,1.2c-0.1,0.3-0.4,0.7-0.4,1
		c-0.3,2.1-0.6,4.2,0.3,6.2c0.6,1.4,1.6,2.2,3,2.4c2.2,0.4,4.3,0.7,6.3-0.7c1.4-1,2-2.2,2-3.8c0-1.6-0.2-3.3-0.1-4.9
		c0.1-2.3-0.1-4.6,0.2-6.9"/>
	<path class="st0" d="M703,408.7c-2.3-2.4-6.3-3.2-9-1.7c-1.6,0.9-2.4,2.3-2.4,4.1c0,0.8,0,1.6,0,2.4c0,3,2,5,5,5c0.7,0,1.5,0,2.2,0
		c2.6,0,4.7-2,4.7-4.7c0-1.7,0.1-3.3-0.3-5"/>
	<path class="st0" d="M361.7,482.4c-1.1-0.8-1.9-2.1-3.4-2.2c-2.1-0.1-4.2-0.6-6.1,0.8c-1.2,0.8-1.8,1.9-1.9,3.2
		c-0.2,1.7-0.4,3.5,0.3,5.1c0.8,1.9,2.3,3,4.5,2.9c1.2,0,2.4,0.2,3.7-0.2c2.2-0.8,3.4-2.4,3.4-4.6c0-1.6-0.2-3.2-0.1-4.7
		c0.1-2.3-0.1-4.6,0.2-6.9"/>
	<path class="st0" d="M540.3,482.4c-0.4,2.2-0.6,4.5,0,6.7c0.5,1.8,2.2,3.1,4.4,3.2c0.8,0,1.6,0,2.4,0c2.4,0,4.6-1.9,4.9-4.4
		c0.1-1.1,0.1-2.3,0-3.4c-0.3-2.7-2.6-4.5-5-4.4c-1,0-2.1-0.1-3,0c-1.4,0.2-2.5,1.1-3.4,2.2"/>
	<path class="st0" d="M390,445.6c-2.2-2.8-5.2-2.8-8.3-2.1c-1.8,0.4-3.3,2.6-3.2,4.4c0.1,1.3-0.2,2.7,0.1,3.9c0.5,2,2.1,3.3,4.1,3.6
		c1.4,0.2,2.8,0.2,4.3-0.2c1.7-0.5,3.3-1.9,3.5-4.2c0.1-1.8,0.2-3.6-0.3-5.4"/>
	<path class="st0" d="M225.3,408.8c-1-0.6-1.6-1.8-2.9-2.1c-3.4-0.8-6.2-0.5-7.8,1.7c-1,1.3-0.9,2.8-0.9,4.3
		c-0.1,2.2,0.4,4.1,2.4,5.2c1.8,1,3.7,0.6,5.6,0.5c1.3,0,2.1-0.9,2.9-1.7c0.9-0.9,1.1-2.1,1.1-3.3c0-1.5-0.2-3.1-0.1-4.5
		c0.2-2.4,0-4.8,0.1-7.2c0,0,0-0.1,0-0.1"/>
	<path class="st0" d="M202.9,371.9c-2.1-2.9-5.1-2.5-8-2.1c-1.9,0.2-3.4,2.5-3.4,4.5c0,0.9,0,1.7,0,2.6c-0.1,2.5,1.6,4.7,4.3,4.9
		c1.7,0.2,3.5,0.4,5.1-0.5c1.7-0.9,2.5-2.3,2.5-4.2c0-1.7,0.2-3.4-0.3-5"/>
	<path class="st0" d="M375.9,371.9c-2.1-2.9-5.1-2.5-8-2.1c-1.9,0.2-3.4,2.5-3.4,4.5c0,0.9,0,1.8,0,2.7c0,2.4,1.6,4.6,4.4,4.8
		c1.7,0.1,3.4,0.3,5-0.5c1.7-0.9,2.5-2.3,2.5-4.2c0-1.7,0.2-3.4-0.3-5"/>
	<path class="st0" d="M628,455.5c-2.9,0-5.8,0-8.8,0c-1.2,0-2-0.5-2.2-1.5c-0.2-1,0.3-1.7,1.1-2.2c2.7-1.6,5.4-3.2,8.2-4.7
		c0.4-0.3,0.9-0.5,1.2-0.9c0.4-0.4,0.7-1.1,0.5-1.6c-0.3-0.6-0.6-1.3-1.5-1.4c-2.2-0.2-4.3,0-6.5-0.1c-1,0-1.9,0-2.9,0"/>
	<path class="st0" d="M208.2,377c3.6,0,7.1,0,10.7,0c1,0,1.3-0.3,1.2-1.2c0-1.5,0-2.9-1-4.1c-0.8-1.1-1.9-1.8-3.3-1.9
		c-1.7-0.1-3.4-0.4-5.1,0.4c-1.7,0.8-2.6,2.1-2.7,3.8c-0.1,1.7-0.3,3.4,0.5,5c0.8,1.7,2.1,2.6,3.8,2.7c2.1,0.2,4.1,0.2,6.2-0.1"/>
	<path class="st0" d="M611.3,487.5c3.9,0,7.7,0,11.6,0c1-4-1-7.4-5.2-7.4c-1.4,0-2.7,0-4,0.7c-1.8,0.9-2.6,2.4-2.7,4.3
		c0,1.1-0.1,2.1,0,3.2c0.1,1.8,2.5,4,4.5,4c1.7,0,3.5,0,5.2,0c0.4,0,0.8-0.1,1.2,0.1"/>
	<path class="st0" d="M556,487.5c3.9,0,7.7,0,11.6,0c1.1-4.3-1-7.3-5.2-7.4c-1.1,0-2.3-0.1-3.3,0.3c-1.6,0.6-2.8,1.7-3.2,3.6
		c-0.4,1.8-0.4,3.6,0.3,5.4c0.8,2,2.4,3,4.6,2.9c1.9,0,3.7,0,5.6,0"/>
	<path class="st0" d="M462.4,450.7c3.5,0,7.1,0,10.6,0c1,0,1.4-0.3,1.2-1.2c-0.2-1.4,0-2.8-0.9-4c-0.7-1-1.5-1.7-2.7-1.9
		c-1.6-0.4-3.3-0.4-4.9,0c-2.3,0.6-3.7,2.4-3.6,4.7c0,1.4-0.2,2.9,0.5,4.3c1,2,2.5,2.9,4.6,2.9c1.9,0,3.9,0,5.8,0"/>
	<path class="st0" d="M493.1,450.7c3.6,0,7.1,0,10.7,0c1,0,1.2-0.3,1.3-1.2c0.1-2.6-0.6-4.8-3.2-5.8c-2.1-0.8-6.2-0.8-7.9,1.5
		c-1.3,1.8-1,3.7-1,5.6c0,2.1,2.1,4.6,4.9,4.6c1.3,0,2.7,0,4,0c0.5,0,1.1,0,1.6,0"/>
	<path class="st0" d="M533.8,376.9c2.5,0.3,5,0.1,7.6,0.1c1.2,0,2.4,0,3.5,0c0.4,0,0.8,0,0.9-0.6c0.5-2.5-0.8-5.3-3.1-6.5
		c-2.6-1.3-7-0.2-8.6,2.2c-0.2,0.3-0.3,0.6-0.3,0.9c-0.6,3.6-0.7,6.4,2.3,8.2c0.8,0.5,1.7,0.6,2.6,0.6c1.9,0,3.8,0,5.7,0"/>
	<path class="st0" d="M500.9,487.5c3.5,0,7.1,0,10.6,0c1,0,1.3-0.3,1.2-1.2c-0.1-0.8,0-1.6-0.2-2.4c-0.5-1.8-1.6-3-3.3-3.5
		c-2.1-0.5-4.3-0.6-6.3,0.6c-1.4,0.8-2.2,2.1-2.3,3.7c-0.1,1.2-0.1,2.4,0,3.7c0.1,1.8,2.5,4,4.5,4c1.7,0,3.5,0,5.2,0
		c0.4,0,0.8-0.1,1.2,0.1"/>
	<path class="st0" d="M522.4,450.7c3.5,0,7.1,0,10.6,0c1,0,1.2-0.3,1.2-1.2c0-1.9-0.2-3.7-1.7-5c-0.6-0.5-1.3-1-2.1-1.1
		c-1.9-0.2-3.9-0.6-5.7,0.4c-2.6,1.4-2.9,3.9-2.7,6.5c0.1,1.8,0.8,3.4,2.4,4.4c0.8,0.5,1.7,0.7,2.7,0.7c1.9,0,3.7,0,5.6,0"/>
	<path class="st0" d="M174.7,450.7c3.5,0,7.1,0,10.6,0c1,0,1.3-0.3,1.2-1.2c0-1.6,0-3.1-1.1-4.4c-1-1.1-2.2-1.8-3.8-1.8
		c-0.8,0-1.5,0-2.3,0c-2.4,0-4.7,2.1-4.9,4.3c-0.1,1.6-0.2,3.1,0.3,4.6c0.7,2.1,2.6,3.3,4.7,3.3c1.8,0,3.7,0,5.5,0"/>
	<path class="st0" d="M282.2,487.5c3.5,0,7.1,0,10.6,0c1,0,1.3-0.3,1.2-1.2c-0.1-0.8,0-1.6-0.2-2.4c-0.5-1.8-1.6-3-3.3-3.5
		c-2.1-0.5-4.3-0.6-6.3,0.6c-1.4,0.8-2.2,2.1-2.3,3.7c-0.1,1.2-0.1,2.4,0,3.7c0.1,1.8,2.5,4,4.5,4c1.7,0,3.5,0,5.2,0
		c0.4,0,0.8-0.1,1.2,0.1"/>
	<path class="st0" d="M584.7,450.7c3.5,0,7.1,0,10.6,0c1,0,1.2-0.3,1.2-1.2c0-1.9-0.2-3.7-1.7-5c-0.6-0.5-1.3-1-2.1-1.1
		c-2.1-0.1-4.3-0.7-6.2,0.8c-1.3,1-1.9,2.2-2.1,3.8c-0.1,1.2-0.2,2.4,0.1,3.7c0.5,2.1,2.4,3.8,5,3.8c1.8,0,3.7,0,5.5,0"/>
	<path class="st0" d="M285,413.8c3.9,0,7.9,0,11.9,0c0.1-2.3,0.3-4.5-1.7-6.1c-0.9-0.8-1.9-1.3-3.2-1.2c-0.7,0-1.5,0-2.2,0
		c-2.6,0-4.5,1.4-4.9,3.9c-0.4,2-0.5,4.2,0.8,6.1c1,1.4,2.3,2,3.9,2.1c2,0,4.1,0,6.1,0"/>
	<path class="st0" d="M301.2,413.8c3.9,0,7.7,0,11.6,0c0,0,0.1-0.1,0.2-0.2c0.3-2.5,0.2-5-2.4-6.5c-0.6-0.4-1.3-0.7-2.1-0.6
		c-1.4,0.1-2.8-0.2-4.1,0.2c-2.2,0.7-3.5,2.4-3.4,4.6c0,1.4-0.3,2.8,0.3,4.1c0.9,1.9,2.5,3,4.5,3c1.9,0,3.8-0.2,5.7,0.1"/>
	<path class="st0" d="M585.3,413.8c3.8,0,7.6,0,11.4,0c0.1,0,0.2-0.1,0.4,0c-0.1-1.7,0.3-3.4-0.7-5c-1-1.5-2.3-2.3-4.2-2.3
		c-0.8,0-1.6,0.1-2.3,0c-2.2-0.3-4.4,1.8-4.8,3.7c-0.3,1.1,0,2.4,0,3.6c0.1,2.7,2,4.7,4.7,4.7c1.7,0,3.3,0,5,0
		c0.2,0,0.5-0.1,0.7,0.1"/>
	<path class="st0" d="M362.6,450.7c3.6,0,7.1,0,10.7,0c1,0,1.2-0.3,1.2-1.2c0.1-2.6-0.6-4.9-3.2-5.8c-2.7-0.9-6.3-0.9-8.1,1.8
		c-1.2,1.7-0.9,3.5-0.7,5.4c0.2,2.7,2.2,4.6,4.9,4.6c1.3,0,2.7,0,4,0c0.5,0,1.1,0,1.6,0"/>
	<path class="st0" d="M176.4,489.8c0.5-0.2,1.1-0.1,1.6-0.1c3.2,0,5-2.1,5.1-4.4c0.2-2.5-1.4-4.9-4.8-5.2c-0.9-0.1-1.8-0.1-2.7,0.1
		c-2.6,0.4-4.3,2.2-4.4,4.5c-0.1,2.3,1.7,4.7,4.3,5c0.2,0,0.5,0.1,0.7,0.1"/>
	<path class="st0" d="M375.2,411.1c-2.6,0-5.2,0-7.8,0c-3.2,0.1-4.4,2.7-3.9,4.6c0.4,1.6,1.6,2.8,3.5,2.8c1.5,0,3,0.1,4.5-0.1
		c2.1-0.3,3.9-2.3,3.9-4.4c0-1.1,0.1-2.3,0-3.4c-0.2-2.2-2.2-4.1-4.4-4.1c-2-0.1-4,0-6,0"/>
	<path class="st0" d="M519.2,382.2c0-2.5,0-5,0-7.4c0-2.8-1.8-4.8-4.4-5.1c-1.6-0.2-3.4-0.4-5,0.5c-1.9,1-2.7,2.5-2.8,4.5
		c0,2.5,0,5,0,7.4"/>
	<path class="st0" d="M255.9,374.2c-2.6,0.3-5.3,0.1-7.9,0.1c-1.6,0-3.1,1-3.7,2.4c-0.5,1.2,0.1,3.2,1.2,4.1
		c0.4,0.4,0.9,0.7,1.5,0.7c1.9,0.2,3.8,0.4,5.7-0.1c2.1-0.6,3.2-2.1,3.5-4.1c0.2-1.4,0.1-2.8-0.1-4.1c-0.4-1.9-2.2-3.6-4.9-3.7
		c-1.9,0-3.7,0-5.6,0"/>
	<path class="st0" d="M238.8,489.8c0.8-0.3,1.7-0.1,2.6-0.2c2.3-0.3,4.1-2,4.2-4.3c0.2-2.3-1.1-4.3-3.5-5c-1.6-0.5-3.3-0.4-4.9,0
		c-1.9,0.5-3.6,2.6-3.5,4.6c0,2.4,1.8,4.2,3.6,4.6c0.5,0.1,0.9,0.2,1.3,0.4"/>
	<path class="st0" d="M440.9,448c-2.6,0-5.2,0-7.8,0c-2.1,0-3.9,1.7-3.9,3.7c0,2,1.6,3.8,3.9,3.8c1.1,0,2.2,0.1,3.3,0
		c2.5-0.2,4.5-1.6,4.8-4.3c0.2-1.8,0.4-3.6-0.5-5.4c-0.9-1.7-2.3-2.5-4.2-2.5c-1.9-0.1-3.7,0-5.6,0"/>
	<path class="st0" d="M449.1,418.9c0-2.5,0-5,0-7.6c0.1-2.7-2.4-5.1-4.9-4.9c-0.7,0.1-1.4,0-2.1,0c-3.1,0-5.1,2-5.1,5.1
		c0,2,0,4.1,0,6.1c0,0.4,0.1,0.8-0.1,1.2"/>
	<path class="st0" d="M248.1,411.1c-2.6,0-5.2-0.1-7.8,0c-3.1,0.1-4.3,2.2-3.8,4.6c0.3,1.4,1.6,2.7,2.9,2.8c1.7,0.1,3.3,0.2,5-0.1
		c2.1-0.3,3.9-2.3,3.9-4.4c0-1.1,0.1-2.3,0-3.4c-0.2-2.5-2.5-4.1-4.4-4.1c-2-0.1-4,0-6,0"/>
	<path class="st0" d="M533.8,411.1c-2.6,0-5.2,0-7.8,0c-3.2,0.1-4.3,2.6-3.9,4.6c0.4,1.6,1.9,2.8,3.5,2.8c1.5,0,3,0.1,4.5-0.1
		c2.1-0.3,3.9-2.3,3.9-4.4c0-1.1,0.1-2.3,0-3.4c-0.2-2.2-2.2-4.1-4.4-4.1c-2-0.1-4,0-6,0"/>
	<path class="st0" d="M345.8,484.8c-2.8,0.1-5.7-0.1-8.5,0.1c-1.8,0.2-3.3,1.7-3.1,3.9c0.1,2.1,1.9,3.5,3.6,3.4
		c1.2-0.1,2.4-0.1,3.7,0c2.3,0.1,4.9-2.5,4.8-4.8c-0.1-1.2,0.2-2.5-0.2-3.6c-0.7-2.7-2.6-3.7-5.1-3.8c-1.7-0.1-3.3,0-5,0"/>
	<path class="st0" d="M466.5,484.8c-2.6,0-5.1,0-7.7,0c-2.3,0-4.2,1.5-4,4.1c0.1,1.5,1.8,3.3,3.3,3.3c1.2,0,2.4,0,3.7,0
		c2.7,0,4.5-1.7,5-4.4c0.3-1.7,0.3-3.4-0.3-4.8c-0.9-1.9-2.7-3-4.9-3c-1.7,0-3.3,0-5,0"/>
	<path class="st0" d="M360.1,382.2c0.1-3,0.5-6-0.2-8.9c-0.4-2-1.8-3.3-4-3.6c-1.4-0.2-2.8-0.2-4.1,0c-1.8,0.3-3.8,2.4-3.8,4.8
		c0,2.5,0,5,0,7.6"/>
	<path class="st0" d="M432.6,411.3c-2.9-0.2-5.9-0.3-8.8,0c-1.5,0.2-3.2,1.5-2.9,4.1c0.1,1.7,1.6,3.1,3.4,3.2c1.4,0.1,2.8,0.1,4.1,0
		c1.6-0.1,2.9-0.8,3.6-2.2c1.3-2.6,1.4-5.3-0.2-7.9c-0.8-1.3-2.1-1.9-3.6-1.9c-1.9,0-3.7,0-5.6,0"/>
	<path class="st0" d="M187.2,382.2c0.1-3,0.5-6-0.2-8.9c-0.4-2-1.8-3.3-4-3.6c-1.4-0.2-2.8-0.2-4.1,0c-1.8,0.3-3.8,2.4-3.8,4.8
		c0,2.5,0,5,0,7.6"/>
	<path class="st0" d="M424,374.4c-2.6,0-5.3,0-7.9,0c-2.3,0-3.7,1.6-3.9,3.4c-0.2,1.5,1.1,3.8,3.3,4c1.5,0.1,3,0.1,4.5-0.1
		c2.3-0.2,4.4-2.4,4.3-4.9c0-1,0.1-2.1,0-3c-0.4-2.4-2.3-4.1-5-4.1c-1.9,0-3.7,0-5.6,0"/>
	<path class="st0" d="M343.8,374.4c-2.6,0-5.3,0-7.9,0c-2.5,0-3.9,1.9-3.9,3.7c0,1.9,1.5,3.7,3.8,3.8c1.1,0,2.2,0,3.3,0
		c2.8,0,5.2-2.3,5-5.1c-0.1-1,0.1-2,0-2.9c-0.3-2.4-2.5-4.1-5-4.1c-1.9,0-3.7,0-5.6,0"/>
	<path class="st0" d="M294.6,374.4c-2.6,0-5.2,0-7.8,0c-2,0-3.9,1.3-3.9,3.8c0,2.1,1.7,3.7,3.9,3.6c1.6,0,3.2,0.3,4.8-0.3
		c1.9-0.7,3.3-2.4,3.4-4.3c0.1-1.3,0-2.5-0.2-3.8c-0.5-2.2-2.4-3.7-4.9-3.8c-1.9,0-3.7,0-5.6,0"/>
	<path class="st0" d="M328,448c-2.6,0-5.1,0-7.7,0c-2.3,0-3.9,1.4-3.9,3.5c0,2.4,1.5,3.9,3.9,3.9c1.5,0,3,0.2,4.5-0.2
		c1.8-0.4,3.7-2.9,3.5-4.7c-0.1-1.3,0-2.6-0.2-3.9c-0.4-1.8-2.7-3.4-4.5-3.4c-1.8,0-3.7,0-5.5,0"/>
	<path class="st0" d="M253.2,448c-2.6,0-5.1,0-7.7,0c-2.1,0-4,1.3-4,3.8c0,1.8,1.6,3.8,4,3.6c1.5-0.1,3,0.1,4.5-0.2
		c1.8-0.4,3.7-2.9,3.5-4.7c-0.1-1.1,0.1-2.3,0-3.4c-0.3-2-2.6-3.9-4.7-3.9c-1.8,0-3.7,0-5.5,0"/>
	<path class="st0" d="M419,455.5c-0.3-2.4-0.2-4.8-0.1-7.2c0.1-2.8-2.7-5.2-5-5c-1.1,0.1-2.3-0.1-3.4,0.2c-2.3,0.7-3.6,2.4-3.6,4.8
		c0,2.4,0,4.8,0,7.2"/>
	<path class="st0" d="M269.7,455.5c0.1-3,0.5-6-0.3-8.9c-0.5-1.9-2.6-3.3-4.5-3.3c-1.5,0-3-0.3-4.4,0.5c-1.7,0.9-2.8,2.2-2.9,4
		c-0.1,2.6-0.2,5.1,0.1,7.7"/>
	<path class="st0" d="M612.6,455.5c0.1-3,0.5-6-0.3-8.9c-0.5-1.9-2.6-3.3-4.5-3.3c-1.5,0-3-0.3-4.4,0.5c-1.9,1-3,2.6-2.9,4.8
		c0.1,2.3-0.2,4.6,0.1,6.9"/>
	<path class="st0" d="M229.6,492.1c0-2.2-0.1-4.4,0-6.6c0.2-2.7-1.7-5.2-4.8-5.5c-1.2-0.1-2.4-0.2-3.5,0.1c-2.3,0.6-3.7,2.5-3.8,4.4
		c-0.2,2.6-0.2,5.1,0,7.7"/>
	<path class="st0" d="M210.7,443.3c0,2.2,0,4.4,0,6.6c0,2.3,0.7,4.2,2.9,5.1c2,0.9,4.1,0.8,6-0.5c1.4-1,2-2.5,2.1-4.1
		c0.1-2.4,0-4.7,0-7.1"/>
	<path class="st0" d="M569,406.4c0.8,0.5,0.9,1.4,1.2,2.2c1.3,2.9,2.5,5.8,3.7,8.6c0.4,0.9,1,1.5,2.1,1.5c1.1,0,1.7-0.8,2-1.6
		c1.2-3.5,3-6.8,4.2-10.3c0.1-0.3,0.3-0.3,0.5-0.4"/>
	<path class="st0" d="M207.5,443.3c-1.7,0-3.5,0-5.2,0c-2.9-0.1-5.2,2.5-5,5c0.1,1.2-0.1,2.4,0.2,3.7c0.5,1.9,2.7,3.6,4.9,3.5
		c1.7-0.1,3.4,0,5.1,0"/>
	<path class="st0" d="M490.6,443.2c-0.8,0.5-0.9,1.4-1.2,2.1c-1.3,3-2.4,6-3.7,9c-0.3,0.8-1,1.2-1.9,1.2c-1.1,0-1.7-0.6-2.1-1.5
		c-1.4-3.4-2.9-6.9-4.3-10.4c-0.1-0.2-0.2-0.2-0.3-0.4"/>
	<path class="st0" d="M398.3,372.4c-0.1-1.8-1.1-2.8-2.8-2.8c-1.6,0-3.2,0-4.9,0c-1.4,0-2.6,1-2.8,2.3c-0.2,1.5,0.7,2.5,1.9,3
		c1.6,0.7,3.3,0.7,5,1c1.3,0.2,2.6,0.4,3.4,1.6c1.1,1.7,0.2,4.1-2.2,4.2c-1.9,0.1-3.7,0.2-5.6,0c-1.9-0.2-2.9-1.2-2.7-3"/>
	<path class="st0" d="M407,409.7c-0.6-0.2-0.7-0.9-1.1-1.4c-1-1.2-2.3-1.9-3.9-1.8c-1.2,0-2.4,0-3.5,0.7c-1.5,1-2.3,2.4-2.3,4.2
		c0,2.5,0,5,0,7.6"/>
	<path class="st0" d="M476.6,369.2c-0.2,2.8-0.3,5.7,0,8.5c0.2,2.1,2.4,4,4.8,4.1c2.4,0.1,4.3-0.7,5.5-2.8c0.1-0.2,0.1-0.5,0.5-0.5"
		/>
	<path class="st0" d="M349.7,418.9c0-2.4,0-4.8,0-7.2c0-3.3-1.9-5.2-5.2-5.2c-3,0-4.7,1.1-5.5,3.5c-0.1,0.3-0.1,0.7-0.1,1
		c0,2.2,0,4.5,0,6.7c0,0.4,0.1,0.8-0.1,1.2"/>
	<path class="st0" d="M498.3,369.2c-0.1,2.8,0.2,5.7-0.1,8.5c-0.3,2.2-1.8,3.5-3.9,3.9c-2.8,0.5-5,0-6.6-2.9
		c-0.3-0.5-0.2-0.9-0.2-1.3c0-2.6,0-5.1,0-7.7c0-0.2-0.1-0.3-0.1-0.5"/>
	<path class="st0" d="M404.5,479.8c0,2.5,0,5,0,7.6c0.1,2.9-2.6,4.9-4.9,4.9c-2.5,0-4.4-0.7-5.6-3c-0.1-0.1-0.2-0.3-0.4-0.2"/>
	<path class="st0" d="M259.2,406.5c0,2.3,0,4.6,0,6.9c0,2.5,1.8,5.2,5.1,5.1c2.3,0,4.2-0.5,5.3-2.7c0.1-0.2,0.4-0.3,0.6-0.5"/>
	<path class="st0" d="M417.9,418.9c0.3-2.1,0.1-4.2,0.1-6.3c0-0.9,0.1-1.8-0.2-2.7c-0.9-2.3-2.8-3.4-4.9-3.5c-2.5-0.1-4.3,0.8-5.5,3
		c-0.2,0.3-0.2,0.6-0.3,1c-0.2,2.8,0,5.5-0.1,8.3"/>
	<path class="st0" d="M675.7,492.3c-0.1-2.4-0.1-4.7-0.1-7.1c0-3.3-2.8-5.5-6.3-5.1c-2.1,0.2-3.4,1.5-4.5,3.2"/>
	<path class="st0" d="M360.5,418.7c0-2.4,0-4.8,0-7.2c0-2.8-2.2-4.8-5-5c-2.7-0.2-4.5,1.1-5.8,3.2"/>
	<path class="st0" d="M382.7,480.1c0,2.5,0,5,0.1,7.6c0.1,2.3,1.9,4.5,4.8,4.7c2.6,0.1,4.5-0.8,5.9-3.1c0.2-0.3,0.3-0.8,0.3-1
		c-0.2-2.7,0-5.4-0.1-8.2"/>
	<path class="st0" d="M481.8,406.5c0,2.3,0,4.5,0,6.8c0.1,3.3-2.6,5.3-5.2,5.3c-2.3,0-4-0.8-5.1-2.7c-0.1-0.2-0.3-0.3-0.5-0.4"/>
	<path class="st0" d="M658.6,406.5c-0.3,2.3-0.1,4.5-0.1,6.8c0,3.3-1.9,5.1-5.2,5.3c-2.6,0.1-4.2-1.1-5.5-3.1"/>
	<path class="st0" d="M636.7,406.5c0.3,2.3,0.1,4.5,0.1,6.8c0,3.3,1.9,5.2,5.2,5.3c2.3,0.1,4-0.8,5.3-2.7c0.3-0.5,0.5-1,0.4-1.5
		c-0.2-2.6,0-5.3-0.1-7.9"/>
	<path class="st0" d="M440.9,492.3c0.1-2.6,0-5.3,0.1-7.9c0-1.8-1.3-3.1-3-3.8c-2.1-0.9-5.1-0.6-6.7,1.3c-0.8,1-1.2,2.1-1.2,3.3
		c-0.1,2.4,0.2,4.7-0.1,7.1"/>
	<path class="st0" d="M451.9,492.3c0-2.3-0.1-4.6-0.1-6.9c0-3.4-2.9-5.6-6.3-5.2c-2,0.2-3.4,1.5-4.5,3.2"/>
	<path class="st0" d="M664.7,492.3c0.1-2.7,0.1-5.4,0-8c0-1.7-1.4-3-3-3.6c-2.2-0.9-5.1-0.6-6.7,1.3c-0.8,1-1.2,2-1.2,3.2
		c0,2.4,0,4.7,0,7.1"/>
	<path class="st0" d="M460,406.6c0.1,2.6-0.2,5.3,0.1,7.9c0.2,1.8,1.7,3.7,3.6,3.9c3.8,0.5,5.1-0.1,6.8-2.8c0.2-0.3,0.4-0.5,0.3-0.9
		c-0.1-2.8,0.2-5.5-0.1-8.3"/>
	<path class="st0" d="M281,406.6c-0.1,2.6,0.2,5.3-0.1,7.9c-0.2,1.6-1.9,3.7-3.8,3.9c-3.4,0.4-5,0-6.7-2.8c-0.3-0.4-0.3-0.9-0.3-1.5
		c0.1-2.6,0-5.1,0-7.7"/>
	<path class="st0" d="M511.5,418.7c0-2.5,0-5,0-7.4c0-2.4-1.7-4.3-4.1-4.8c-2.5-0.4-4.5,0.2-6.1,2.2c-0.6,0.7-0.5,1.6-0.5,2.4
		c0,2.5,0,5,0,7.6"/>
	<path class="st0" d="M198,492.3c-0.3-2.4-0.2-4.7-0.1-7.1c0.1-2.8-2.2-5.2-5.1-5.1c-1.9,0.1-3.6,0.4-4.8,2.1
		c-0.1,0.1-0.3,0.2-0.5,0.3"/>
	<path class="st0" d="M644.5,492.3c0.1-3,0.4-5.9-0.2-8.9c-0.4-1.7-2.8-3.3-4.5-3.3c-2.2-0.1-3.9,0.7-5.4,2.2
		c-0.5,0.5-0.4,1.1-0.5,1.7c-0.2,2.8-0.1,5.5-0.1,8.3"/>
	<path class="st0" d="M234.1,371.1c-2.4-1.9-5.6-2-8-0.4c-1.3,0.9-1.9,2.1-1.9,3.7c0,2.2,0,4.4,0,6.6c0,0.4,0.1,0.8-0.1,1.2"/>
	<path class="st0" d="M559.6,371.1c-2.6-2.4-7.4-2-9.2,1c-0.6,1-0.7,2.1-0.7,3.3c0,2.3,0,4.5,0,6.8"/>
	<path class="st0" d="M451.5,371.1c-1.7-2.1-7-1.9-8.7,0.1c-0.8,1.1-1.3,2.2-1.3,3.5c0,2.5,0,5,0,7.4"/>
	<path class="st0" d="M437.6,371.1c-2.2-2.2-7.8-2.1-9.4,1.1c-0.6,1.1-0.5,2.2-0.6,3.3c-0.2,2.2-0.2,4.5,0,6.7"/>
	<path class="st0" d="M277.5,492.3c0.1-3,0.4-5.9-0.2-8.9c-0.4-1.6-2.9-3.3-4.5-3.3c-2.2-0.1-3.9,0.7-5.4,2.2
		c-0.5,0.5-0.4,1.1-0.5,1.7c-0.2,2.8-0.1,5.5-0.1,8.3"/>
	<path class="st0" d="M330.4,492.1c-0.1-2.6,0.2-5.1-0.1-7.7c-0.4-2.8-2.2-4.3-5-4.4c-2.2-0.1-3.8,0.9-5.2,2.3"/>
	<path class="st0" d="M308.3,371.1c-2.8-2.6-7.8-1.9-9.5,1.5c-0.4,0.8-0.5,1.7-0.5,2.6c0,2.4,0,4.7,0,7.1"/>
	<path class="st0" d="M358.1,455.5c0-2.3,0-4.6,0-6.9c0.1-3.5-2.8-5.6-6-5.3c-1.8,0.2-3.1,1-4.2,2.3c-0.5,0.6-0.5,1.4-0.5,2.2
		c0,2.6,0,5.2,0,7.8"/>
	<path class="st0" d="M688.5,407.9c-2.3-1.8-5.9-1.9-8.2-0.2c-1.3,1-1.8,2.5-1.8,4.1c0,2.4,0,4.8,0,7.2"/>
	<path class="st0" d="M608,481.5c-1.5-1.3-3.3-1.6-5.2-1.4c-2.9,0.3-4.6,1.9-4.8,4.7c-0.2,2.5-0.2,5,0.1,7.4"/>
	<path class="st0" d="M581.4,444.8c-1.7-2.1-7.3-1.9-8.8,0.2c-0.7,1-1.2,2-1.2,3.2c0,2.4,0,4.9,0,7.3"/>
	<path class="st0" d="M519.1,444.8c-2.6-2.2-6.7-2.1-8.9,0.4c-0.7,0.8-1.1,1.8-1.1,2.9c0,2.5,0,5,0,7.4"/>
	<path class="st0" d="M611.1,408c-1.2-1.5-2.9-1.4-4.6-1.5c-1.7,0-3,0.5-4.1,1.7c-0.8,0.9-1.2,2-1.2,3.2c0,2.4,0,4.9,0,7.3"/>
	<path class="st0" d="M564.7,401.9c0,5.7,0,11.4,0,17.1"/>
	<path class="st0" d="M384.4,401.9c0,5.6,0,11.2,0,16.8"/>
	<path class="st0" d="M379.5,401.9c0,5.6,0,11.2,0,16.8"/>
	<path class="st0" d="M455.4,369.2c0.3,1.7,0.1,3.5,0.1,5.2c0,2.2,1.2,3.5,2.8,4.3c1.6,0.9,3.3,0.5,4.9-0.7c0.5-0.4,0.8-1,1.4-1.1"
		/>
	<path class="st0" d="M312,439.2c0,5.4,0,10.9,0,16.3"/>
	<path class="st0" d="M598.8,369.2c0.3,1.7,0.2,3.3,0.1,5c-0.1,2.4,1.3,3.8,3.2,4.7c1.7,0.8,3.4,0.2,4.9-1c0.3-0.3,0.5-0.8,1.1-0.9"
		/>
	<path class="st0" d="M631.9,443.3c-0.3,1.7-0.2,3.5-0.1,5.2c0.2,2,1.4,3.5,3.4,4.1c1.9,0.7,3.6,0,5-1.3c0.3-0.2,0.3-0.8,0.8-0.7"/>
	<path class="st0" d="M490.6,401.9c0,3.7,0.1,7.5,0,11.2c-0.1,3.3,2.2,5.8,5.5,5.5c0.3,0,0.6,0,0.9,0"/>
	<path class="st0" d="M225.1,439.2c0,3.4,0.1,6.8,0,10.2c-0.2,3.9,2.1,6.5,6.1,6.1"/>
	<path class="st0" d="M202.2,475.9c0.3,2.1,0.1,4.3,0.1,6.5c0,1.6,0,3.2,0,4.7c0,3.2,1.9,5.1,5.1,5.1c0.3,0,0.6,0,0.9,0"/>
	<path class="st0" d="M256.5,475.9c0,3.4,0.1,6.8,0,10.2c-0.2,3.7,2,6.6,6.1,6.1"/>
	<path class="st0" d="M458.4,439c-0.4,0.2-0.9,0.1-1.3,0.1c-2.9,0-5,2.1-5,5c0,3.8,0,7.6,0,11.3"/>
	<path class="st0" d="M567.8,439c-0.4,0.2-0.9,0.1-1.3,0.1c-2.9,0-5,2.1-5,5c0,3.8,0,7.6,0,11.3"/>
	<path class="st0" d="M171.1,401.9c0,3.7,0,7.4,0,11.1c0,3.8,1.7,5.5,5.5,5.6c0.2,0,0.4-0.1,0.5,0.1"/>
	<path class="st0" d="M523.3,365.1c0,3.6,0.2,7.2,0,10.8c-0.2,3.6,2.2,6.2,5.9,5.8"/>
	<path class="st0" d="M402.5,365.1c0,3.6,0.1,7.2,0,10.8c-0.2,3.6,2.1,6.2,5.9,5.8"/>
	<path class="st0" d="M577.8,475.9c-2.5-0.2-4.5,0.6-5.6,2.9c-0.3,0.7-0.4,1.4-0.4,2.2c0,3.7,0,7.4,0,11.1"/>
	<path class="st0" d="M162.2,475.9c-2.4-0.1-4.3,0.5-5.5,2.8c-0.4,0.7-0.6,1.5-0.6,2.3c0,3.7,0,7.4,0,11.1"/>
	<path class="st0" d="M641.4,443.3c-0.1,2.3-0.1,4.6-0.1,6.9c0,1.9,0,3.9,0.2,5.8c0.2,3-2.1,5.5-5.4,5.4c-0.3,0-0.6,0-1,0"/>
	<path class="st0" d="M465,369.2c-0.1,2.4-0.1,4.9-0.1,7.3c0,2,0,4,0.2,6c0.3,2.5-2.1,5.5-5.3,5.2c-0.2,0-0.4,0-0.6,0"/>
	<path class="st0" d="M608.6,369.2c-0.3,1.3-0.1,2.6-0.1,3.9c0,3.2-0.2,6.4,0,9.6c0.2,2.8-2.7,5.2-5,5c-0.3,0-0.6,0-0.9,0"/>
	<path class="st0" d="M169.6,450.7c-4.4,0-8.8,0-13.2,0"/>
	<path class="st0" d="M321.7,369.2c0.1,2.2-0.2,4.3-2.2,5.8c-0.9,0.7-1.7,0.8-2.7,0.8c-1.4,0-2.8,0-4.3,0"/>
	<path class="st0" d="M585.3,365.4c0,3.1,0,6.2,0,9.3c0,0.9,0.3,1.3,1.2,1.2c1.4-0.1,2.8,0.1,4.3-0.1c0.8-0.2,1.4,0.5,1.9,0.9
		c2,1.4,2.6,3.3,2.2,5.6"/>
	<path class="st0" d="M238.7,490.1c-0.3,1.5-0.1,1.7,1.3,2c1.9,0.3,3,1.3,3.3,3.4c0.2,1.6-0.9,3.1-2.7,3.7c-0.4,0.1-1.1-0.1-1.1,0.7
		"/>
	<path class="st0" d="M559.9,406.3c0,4.2,0,8.4,0,12.7"/>
	<path class="st0" d="M176.2,489.9c-0.5,1.6-0.3,1.8,1.3,2.1c1.5,0.2,3.1,1.8,3.2,3.2c0.1,1.9-0.8,3.4-2.6,3.9
		c-0.4,0.1-0.7,0.3-1,0.5"/>
	<path class="st0" d="M401.9,443.1c0,4.1,0,8.3,0,12.4"/>
	<path class="st0" d="M502.3,369.7c-0.3,1.8-0.1,3.7-0.1,5.5c0,2.3,0,4.6,0,6.9"/>
	<path class="st0" d="M485.7,406.5c0,4.1,0,8.1,0,12.2"/>
	<path class="st0" d="M212.7,480.3c0,4,0,8,0,11.9"/>
	<path class="st0" d="M166.4,480.3c0,4,0,8,0,11.9"/>
	<path class="st0" d="M649,480.4c0,3.9,0,7.8,0,11.7"/>
	<path class="st0" d="M169.9,439.3c0,3.3,0.1,6.7,0,10c-0.1,2.1,0.2,4.1-0.1,6.2"/>
	<path class="st0" d="M156.2,439.3c-0.1,5.4-0.1,10.7,0,16.1"/>
	<path class="st0" d="M312.2,365.1c0.1,0.2,0.1,0.5,0.1,0.7c0,5.2,0,10.4,0,15.6c0,0.3,0,0.5-0.1,0.7"/>
	<path class="st0" d="M319.6,475.9c0.3,0.9,0.1,1.9,0.1,2.8c0,4.1,0,8.2,0,12.3c0,0.4,0.1,0.8-0.1,1.2"/>
	<path class="st0" d="M187.3,475.9c-0.1,2.1-0.3,4.2,0.1,6.3c0.1,0.8-0.2,1.6-0.2,2.4c0,2.5,0,5,0,7.4"/>
	<path class="st0" d="M203.5,364.9c-0.3,1.9,0,3.8-0.1,5.7c0,0.5,0.1,1-0.4,1.3"/>
	<path class="st0" d="M703.5,401.6c0,1.9,0,3.8,0,5.7c0,0.5,0.1,1-0.4,1.3"/>
	<path class="st0" d="M376.5,364.9c-0.3,1.9,0,3.8-0.1,5.7c0,0.5,0.1,1-0.4,1.3"/>
	<path class="st0" d="M500.8,401.9c0,1.8,0,3.7,0,5.5c0,0.5-0.1,1,0.4,1.3"/>
	<path class="st0" d="M318.7,375.9c0.4,0.5,1,0.6,1.5,1c1.7,1.4,1.8,3.3,1.7,5.3"/>
	<path class="st0" d="M390.5,438.9c0,1.8,0,3.6,0,5.4c0,0.5-0.1,0.9-0.4,1.3"/>
	<path class="st0" d="M540,475.7c0,1.8,0,3.6,0,5.4c0,0.4-0.1,0.9,0.4,1.2"/>
	<path class="st0" d="M633.8,475.9c0,1.7,0,3.4,0,5.1c0,0.5,0.1,0.9,0.4,1.3"/>
	<path class="st0" d="M594.7,369.2c0,1.4,0.1,2.7-0.6,4c-0.5,1-1.4,1.5-2.1,2.2"/>
	<path class="st0" d="M266.7,475.9c0,1.7,0,3.4,0,5.1c0,0.5,0.1,0.9,0.4,1.3"/>
	<path class="st0" d="M347.4,439.2c0,1.7,0,3.4,0,5.1c0,0.4-0.1,0.9,0.4,1.2"/>
	<path class="st0" d="M585.5,375.8c-0.3,2.1,0,4.2-0.1,6.3"/>
	<path class="st0" d="M452.5,450.7c1.9,0,3.8,0,5.7,0"/>
	<path class="st0" d="M490.9,406.4c1.9,0,3.8,0,5.7,0"/>
	<path class="st0" d="M561.8,450.7c1.9,0,3.8,0,5.7,0"/>
	<path class="st0" d="M156.4,487.6c1.9,0,3.7,0,5.6,0"/>
	<path class="st0" d="M230.9,443.3c-1.8,0-3.7,0-5.5,0"/>
	<path class="st0" d="M176.9,406.5c-1.8-0.3-3.7,0-5.5-0.1"/>
	<path class="st0" d="M529.1,369.5c-1.8,0.3-3.7,0-5.5,0.1"/>
	<path class="st0" d="M208,480.1c-1.8,0-3.7,0-5.5,0"/>
	<path class="st0" d="M408.3,369.5c-1.8,0.3-3.7,0-5.5,0.1"/>
	<path class="st0" d="M262.4,480.1c-1.8,0-3.7,0-5.5,0"/>
	<path class="st0" d="M577.5,487.6c-1.8,0-3.7,0-5.5,0"/>
	<path class="st0" d="M173.4,495.7c0.3,1.9,1.3,3.2,3.3,3.7c0.3,0.1,0.5,0.1,0.5,0.5"/>
	<path class="st0" d="M236,495.7c0.2,1.9,0.9,2.9,2.7,3.4c0.3,0.1,0.5,0.2,0.7,0.4"/>
	<path class="st0" d="M647.9,454c-0.8,0.9-1.1,2-1.8,2.9"/>
	<path class="st0" d="M666.3,406.5c-1.7,0.5-3,1.5-3.7,3.3c-0.9,2.4-0.1,6,1.6,7.7c0.8,0.7,1.7,1.2,2.8,1.1c1.8-0.1,3.6,0.4,5.3-0.8
		c1.4-1,2.2-2.2,2.2-3.9c0-0.7,0-1.5,0-2.2c0-3.1-2-5.1-5.1-5.1c-1,0-1.9,0-2.9,0"/>
	<path class="st0" d="M185.3,406.5c-2,0.6-3.5,1.9-3.8,4c-0.3,2.4-0.6,4.9,1.6,6.8c0.9,0.8,2,1.3,3.3,1.2c0.7,0,1.5-0.1,2.2,0
		c2.8,0.2,5.1-2.6,5-5c-0.1-1.8,0.2-3.7-1.1-5.2c-0.9-1.1-2.1-1.8-3.5-1.8c-1.2,0-2.4,0-3.5,0"/>
	<path class="st0" d="M201.6,406.5c-1.7,0.5-3.3,1.5-3.7,3.2c-0.6,2.3-0.8,4.9,0.7,7c0.9,1.2,2.2,1.8,3.7,1.8c0.7,0,1.5-0.1,2.2,0
		c2.2,0.2,4.6-1.3,5.1-4c0.3-2,0.4-4.1-0.8-6c-1-1.4-2.3-2.1-4-2.1c-1,0-2,0-3,0"/>
	<path class="st0" d="M371.4,480.1c-1.6,0.3-3.1,0.9-4,2.4c-0.3,0.5-0.5,0.9-0.6,1.5c-0.2,2.5-0.7,5.1,1.6,7.1
		c0.9,0.8,1.9,1.3,3.2,1.2c1.3-0.1,2.5,0.1,3.8-0.2c1.9-0.5,3.7-2.7,3.5-4.9c-0.1-1.4,0.2-2.8-0.5-4.1c-1-2-2.6-2.8-4.7-2.9
		c-0.7,0-1.4,0-2.1,0"/>
	<path class="st0" d="M586.7,480.1c-1,0.2-2.1,0.4-2.9,1.1c-1.4,1.2-2.1,2.7-1.9,4.5c0.1,1.3-0.2,2.6,0.6,3.9c1,1.8,2.4,2.7,4.4,2.7
		c0.7,0,1.5,0,2.2,0c2.8,0,4.9-2.1,4.9-4.9c0-1.2,0.3-2.5-0.1-3.6c-0.9-2.6-2.4-3.4-5-3.7c-0.6-0.1-1.3,0-1.9,0"/>
</g>
<g>
</g>
<g>
</g>
<g>
</g>
<g>
</g>
<g>
</g>
<g>
</g>
<g>
</g>
<g>
</g>
<g>
</g>
<g>
</g>
<g>
</g>
</svg>
